<svg width="1340" height="834" viewBox="0 0 1340 834" fill="none" xmlns="http://www.w3.org/2000/svg">
<g filter="url(#filter0_b)">
<rect width="1340" height="834" fill="url(#paint0_linear)"/>
<mask id="mask0" mask-type="alpha" maskUnits="userSpaceOnUse" x="0" y="0" width="1340" height="834">
<rect width="1340" height="834" fill="#EAF1F1"/>
</mask>
<g mask="url(#mask0)">
<rect width="1340" height="834" fill="#EAF1F1"/>
<path opacity="0.6" d="M131.803 833.632C381.003 833.632 517.229 495.821 775.812 495.821C1034.39 495.821 1196.6 833.632 1423.21 833.632C1649.81 833.632 -25.9159 833.632 131.803 833.632Z" fill="#D8D8D8"/>
<path opacity="0.4" d="M-339.307 924C-109.133 924 16.6916 565 255.532 565C494.373 565 644.193 924 853.499 924C1062.81 924 -484.984 924 -339.307 924Z" fill="#936B99"/>
<path opacity="0.3" d="M576.582 834C804.119 834 928.502 394 1164.61 394C1400.71 394 1548.81 834 1755.72 834C1962.63 834 432.574 834 576.582 834Z" fill="#9166EF"/>
<path opacity="0.2" d="M-269.605 950.505C-94.0031 950.505 1.98999 683 184.204 683C366.418 683 480.717 950.505 640.399 950.505C800.081 950.505 -380.744 950.505 -269.605 950.505Z" fill="url(#paint1_linear)"/>
</g>
</g>
<defs>
<filter id="filter0_b" x="-50" y="-50" width="1440" height="934" filterUnits="userSpaceOnUse" color-interpolation-filters="sRGB">
<feFlood flood-opacity="0" result="BackgroundImageFix"/>
<feGaussianBlur in="BackgroundImage" stdDeviation="25"/>
<feComposite in2="SourceAlpha" operator="in" result="effect1_backgroundBlur"/>
<feBlend mode="normal" in="SourceGraphic" in2="effect1_backgroundBlur" result="shape"/>
</filter>
<linearGradient id="paint0_linear" x1="670" y1="0" x2="670" y2="834" gradientUnits="userSpaceOnUse">
<stop stop-color="#3A3A3A" stop-opacity="0.8"/>
<stop offset="1" stop-color="#3A3A3A"/>
</linearGradient>
<linearGradient id="paint1_linear" x1="-277" y1="816.752" x2="655.277" y2="816.752" gradientUnits="userSpaceOnUse">
<stop stop-color="#3F3F3F"/>
<stop offset="1"/>
</linearGradient>
</defs>
</svg>
