<svg width="48" height="48" viewBox="0 0 48 48" fill="none" xmlns="http://www.w3.org/2000/svg">
<g filter="url(#filter0_d)">
<path fill-rule="evenodd" clip-rule="evenodd" d="M12.0312 31.9688C6.65625 26.5938 6.65625 13.4062 12.0312 8.03125C17.4062 2.65625 30.5938 2.65625 35.9688 8.03125C41.3438 13.4062 41.3438 26.5938 35.9688 31.9688C30.5938 37.3438 17.4062 37.3438 12.0312 31.9688Z" fill="#9190AE"/>
<path d="M27 12H18.4286C17.6429 12 17 12.675 17 13.5V24H18.4286V13.5H27V12ZM26.6 15L31 19.3333V26.5556C31 27.35 30.34 28 29.5333 28H21.4593C20.6527 28 20 27.35 20 26.5556L20.0073 16.4444C20.0073 15.65 20.66 15 21.4667 15H26.6ZM26 20H30L26 16V20Z" fill="white"/>
</g>
<defs>
<filter id="filter0_d" x="0" y="0" width="48" height="48" filterUnits="userSpaceOnUse" color-interpolation-filters="sRGB">
<feFlood flood-opacity="0" result="BackgroundImageFix"/>
<feColorMatrix in="SourceAlpha" type="matrix" values="0 0 0 0 0 0 0 0 0 0 0 0 0 0 0 0 0 0 127 0"/>
<feOffset dy="4"/>
<feGaussianBlur stdDeviation="4"/>
<feColorMatrix type="matrix" values="0 0 0 0 0 0 0 0 0 0 0 0 0 0 0 0 0 0 0.25 0"/>
<feBlend mode="normal" in2="BackgroundImageFix" result="effect1_dropShadow"/>
<feBlend mode="normal" in="SourceGraphic" in2="effect1_dropShadow" result="shape"/>
</filter>
</defs>
</svg>
