<svg width="20" height="20" viewBox="0 0 20 20" fill="none" xmlns="http://www.w3.org/2000/svg">
<path fill-rule="evenodd" clip-rule="evenodd" d="M9.99958 0.000857082C15.5226 0.000857082 19.9992 4.59053 19.9992 10.2533C19.9992 14.7821 17.1365 18.6235 13.1665 19.9812C12.6591 20.0814 12.4791 19.7617 12.4791 19.4883C12.4791 19.1506 12.4911 18.0467 12.4911 16.6754C12.4911 15.7189 12.1714 15.0949 11.8123 14.777C14.039 14.5233 16.3788 13.6559 16.3788 9.71845C16.3788 8.59825 15.9914 7.6846 15.3495 6.96722C15.4532 6.70753 15.796 5.66446 15.2509 4.25284C15.2509 4.25284 14.4136 3.97858 12.5048 5.30362C11.7052 5.0765 10.8498 4.96251 9.99958 4.95908C9.14935 4.96251 8.29399 5.0765 7.4969 5.30362C5.58561 3.97772 4.74566 4.25284 4.74566 4.25284C4.20313 5.66446 4.54596 6.70753 4.64881 6.96636C4.01029 7.6846 3.61946 8.59825 3.61946 9.71845C3.61946 13.6465 5.95415 14.5267 8.17485 14.7855C7.88859 15.0409 7.62975 15.4935 7.53975 16.156C6.96979 16.4183 5.52218 16.8708 4.62996 15.3041C4.62996 15.3041 4.10114 14.3184 3.0975 14.2473C3.0975 14.2473 2.12214 14.2344 3.02893 14.8704C3.02893 14.8704 3.68374 15.1849 4.13885 16.3703C4.13885 16.3703 4.72595 18.2001 7.50718 17.5796C7.51233 18.4367 7.52175 19.2449 7.52175 19.4883C7.52175 19.76 7.33748 20.0763 6.83866 19.982C2.86523 18.627 0 14.783 0 10.2541C0 4.58967 4.47825 0 9.99958 0" fill="white"/>
</svg>
