<svg width="28" height="23" viewBox="0 0 28 23" fill="none" xmlns="http://www.w3.org/2000/svg">
<path d="M0.42294 10.6985C3.28742 9.13357 6.48495 7.82746 9.47256 6.51467C14.6124 4.36443 19.7727 2.25145 24.985 0.284294C25.9991 -0.05089 27.8213 -0.37858 28 1.11203C27.9022 3.22197 27.4997 5.31955 27.2236 7.41714C26.523 12.0299 25.713 16.6269 24.9234 21.2245C24.6512 22.7558 22.717 23.5487 21.4794 22.5687C18.505 20.576 15.5078 18.6028 12.5715 16.5639C11.6095 15.5944 12.5016 14.2024 13.3605 13.5102C15.8102 11.1155 18.4082 9.08131 20.73 6.56308C21.3562 5.06295 19.5058 6.32713 18.8955 6.71457C15.5417 9.00678 12.2701 11.4389 8.73418 13.4535C6.92805 14.4396 4.82298 13.5969 3.01768 13.0466C1.399 12.3819 -0.972953 11.7122 0.422736 10.6987L0.42294 10.6985Z" fill="white"/>
</svg>
